<?xml version="1.0" encoding="utf-8"?>
<!-- Generator: Adobe Illustrator 19.0.0, SVG Export Plug-In . SVG Version: 6.00 Build 0)  -->
<svg version="1.1" id="Layer_1" xmlns="http://www.w3.org/2000/svg" xmlns:xlink="http://www.w3.org/1999/xlink" x="0px" y="0px"
	 viewBox="0 0 640 480" style="enable-background:new 0 0 640 480;" xml:space="preserve">
<style type="text/css">
	.st0{fill:#1ABC9C;}
	.st1{fill:#E67E22;}
	.st2{fill:#F1C40F;}
	.st3{fill:#E74C3C;}
	.st4{fill:#2ECC71;}
	.st5{fill:#3498DB;}
</style>
<g id="XMLID_1_">
	<g id="XMLID_509_">
		<path id="XMLID_583_" class="st0" d="M118,245.2c-12-5.4-23-10.1-32-14.3v54.4c10-4,21-8.2,32-13V245.2z"/>
		<path id="XMLID_582_" class="st1" d="M173.2,345.5c-5.9,10.8-12.5,20.5-20.7,28.5h10.2c38.1,0,68.9-7.9,92.5-24
			c-14.7-2.3-30.6-6.6-42.2-12.7C201.4,341.7,188.2,344.4,173.2,345.5z"/>
		<path id="XMLID_581_" class="st1" d="M118,208.3v-9.4c-11,0.3-22-0.6-32-2.9v10.4C96,207.5,107,208.4,118,208.3z"/>
		<path id="XMLID_580_" class="st2" d="M224,110.9c0.6-2.3,1.2-4.6,1.7-6.9c-3.7-1.2-7.6-2.3-11.6-3.3c2.2,6,3.8,12.3,4.9,18.7
			C220.7,116.6,222.4,113.7,224,110.9z"/>
		<path id="XMLID_579_" class="st2" d="M266.8,280.8c-4.1,12.6-10.2,23.4-18.1,32.5c10.7,6.3,20.5,12.2,28.3,17.5
			c7.1-8.3,13-17.7,17.7-28.2c-0.6-0.5-1.3-0.9-1.9-1.4C282.9,293.8,274.3,287.1,266.8,280.8z"/>
		<path id="XMLID_578_" class="st3" d="M565.7,374l-14.9-24.6c-5.4,8.4-12.2,16.6-20,24.6H565.7z"/>
		<path id="XMLID_577_" class="st2" d="M402,124h1.8c-1.3-10-1.7-19-0.4-28H370v44.2c9,9.4,20,21.8,32,37.4V124z"/>
		<path id="XMLID_576_" class="st3" d="M500,213.9c9.7,1.6,21,3.7,32.4,6.5c4.9-6.6,8.4-14,10.7-22.2c-9.1-1.4-19.5-4.5-31.9-6.7
			C509.3,200.5,505.6,208,500,213.9z"/>
		<g id="XMLID_572_">
			<g id="XMLID_573_">
				<g id="XMLID_574_">
					<path id="XMLID_575_" class="st0" d="M512.8,348.8l14.7,25.2h3.3c7.9-8,14.6-16.2,20-24.5l-9.1-15.1
						C532.7,339.7,523,344.6,512.8,348.8z"/>
				</g>
			</g>
		</g>
		<g id="XMLID_568_">
			<g id="XMLID_569_">
				<g id="XMLID_570_">
					<path id="XMLID_571_" class="st1" d="M370,374h32v-11.2c-11-2.3-22-5.9-32-10.8V374z"/>
				</g>
			</g>
		</g>
		<g id="XMLID_564_">
			<g id="XMLID_565_">
				<g id="XMLID_566_">
					<path id="XMLID_567_" class="st4" d="M403.8,124h40.4c24,0,41.4,4.3,52.2,12.4c10.8,8.1,16.3,21.5,16.3,39.9
						c0,5.5-0.5,10.6-1.5,15.2c12.4,2.2,22.9,5.4,31.9,6.8c2-7.2,3-15.1,3-23.6c0-26.3-8.1-45.9-24.4-59
						C505.4,102.5,480.2,96,446.1,96h-42.7C402.1,105,402.5,114,403.8,124z"/>
				</g>
			</g>
		</g>
		<path id="XMLID_563_" class="st2" d="M219.8,125.4c-0.2-2-0.5-4-0.8-5.9c-2.2,3.7-4.7,7.5-7.4,11.2c1.9,0.6,3.8,1.3,5.7,2.1
			C218.1,130.3,219,127.9,219.8,125.4z"/>
		<g id="XMLID_558_">
			<g id="XMLID_559_">
				<g id="XMLID_560_">
					<path id="XMLID_561_" class="st2" d="M224,110.9c-1.6,2.8-3.3,5.7-5,8.6c0.3,2,0.6,3.9,0.8,5.9
						C221.3,120.7,222.7,115.8,224,110.9z"/>
				</g>
			</g>
		</g>
		<g id="XMLID_554_">
			<g id="XMLID_555_">
				<g id="XMLID_556_">
					<path id="XMLID_557_" class="st3" d="M276.4,136.9c-8.4,6.2-17.5,12.3-27.1,18c16.1,18.3,24.2,44.5,24.2,78.6
						c0,5.3-0.2,10.5-0.6,15.5c10.8-5.3,22.5-10.3,34.8-14.8c0-0.6,0-1.2,0-1.8C307.8,192.3,297.3,160.5,276.4,136.9z"/>
				</g>
			</g>
		</g>
		<g id="XMLID_550_">
			<g id="XMLID_551_">
				<g id="XMLID_552_">
					<path id="XMLID_553_" class="st3" d="M402,211.5v-33.8c-12-15.7-23-28.1-32-37.4v76.4C380,214.5,391,212.7,402,211.5z"/>
				</g>
			</g>
		</g>
		<g id="XMLID_546_">
			<g id="XMLID_547_">
				<g id="XMLID_548_">
					<path id="XMLID_549_" class="st0" d="M86,96v40.2c10,5.4,21,11.6,32,18.1V124h47.1c17.6,0,33.1,2.2,46.5,6.7
						c2.7-3.8,5.1-7.5,7.4-11.2c-1.1-6.4-2.7-12.8-4.9-18.8C201,97.6,186.6,96,171,96H86z"/>
				</g>
			</g>
		</g>
		<g id="XMLID_542_">
			<g id="XMLID_543_">
				<g id="XMLID_544_">
					<path id="XMLID_545_" class="st2" d="M173.2,345.4c-5.1,0.4-10.3,0.6-15.8,0.6H118v-73.8c-11,4.8-22,9-32,13V374h66.6
						C160.8,366,167.4,356.2,173.2,345.4z"/>
				</g>
			</g>
		</g>
		<g id="XMLID_538_">
			<g id="XMLID_539_">
				<g id="XMLID_540_">
					<path id="XMLID_541_" class="st5" d="M272.9,249.1c-0.9,11.6-3,22.2-6.1,31.7c7.5,6.3,16.1,13.1,25.9,20.4
						c0.6,0.5,1.3,0.9,1.9,1.4c8.5-19.2,12.9-41.9,13.1-68.3C295.4,238.8,283.7,243.8,272.9,249.1z"/>
				</g>
			</g>
		</g>
		<g id="XMLID_534_">
			<g id="XMLID_535_">
				<g id="XMLID_536_">
					<path id="XMLID_537_" class="st2" d="M496.7,217.3c-10.7,9.1-27.4,13.7-50.2,13.7h-8c1.8,2,3.7,4.7,5.7,7
						c19,22.1,41.2,31.2,61.4,36.6l-15.3-25.4c18.8-6.5,32.9-16.1,42.2-28.7c-11.4-2.8-22.7-4.9-32.4-6.5
						C499,215.1,497.9,216.3,496.7,217.3z"/>
				</g>
			</g>
		</g>
		<g id="XMLID_530_">
			<g id="XMLID_531_">
				<g id="XMLID_532_">
					<path id="XMLID_533_" class="st3" d="M402,215.4v-4c-11,1.3-22,3-32,5.1v26.7C378,234.8,388,224.6,402,215.4z"/>
				</g>
			</g>
		</g>
		<g id="XMLID_526_">
			<g id="XMLID_527_">
				<g id="XMLID_528_">
					<path id="XMLID_529_" class="st5" d="M444.1,238c-2-2.3-3.9-5-5.7-7H402v-15.6c-14,9.2-24,19.3-32,27.9v108.6
						c10,4.9,21,8.5,32,10.8V259h58.1l52.6,90.2c10.2-4.3,20-9.3,28.9-14.6l-36.2-59.9C485.3,269.3,463.1,260.1,444.1,238z"/>
				</g>
			</g>
		</g>
		<g id="XMLID_522_">
			<g id="XMLID_523_">
				<g id="XMLID_524_">
					<path id="XMLID_525_" class="st4" d="M244.4,317.8c-8.6,8.4-19,14.9-31.3,19.6c11.6,6.2,27.5,10.4,42.2,12.7
						c5.4-3.7,10.4-7.8,15.1-12.3c2.3-2.3,4.5-4.6,6.6-7c-7.8-5.3-17.6-11.2-28.3-17.5C247.3,314.8,245.9,316.3,244.4,317.8z"/>
				</g>
			</g>
		</g>
		<g id="XMLID_518_">
			<g id="XMLID_519_">
				<g id="XMLID_520_">
					<path id="XMLID_521_" class="st2" d="M219.8,125.4c-0.8,2.5-1.6,4.9-2.5,7.3c11.3,4.5,21,10.8,28.9,18.8
						c1.1,1.1,2.1,2.2,3.1,3.4c9.6-5.8,18.7-11.8,27.1-18c-1.5-1.7-3-3.3-4.6-4.9c-12.7-12.7-28.1-22-46.1-28
						c-0.5,2.3-1.1,4.6-1.7,6.9C222.7,115.8,221.3,120.7,219.8,125.4z"/>
				</g>
			</g>
		</g>
		<g id="XMLID_514_">
			<g id="XMLID_515_">
				<g id="XMLID_516_">
					<path id="XMLID_517_" class="st5" d="M118,198.9v-44.6c-11-6.6-22-12.7-32-18.1V196C96,198.4,107,199.3,118,198.9z"/>
				</g>
			</g>
		</g>
		<g id="XMLID_510_">
			<g id="XMLID_511_">
				<g id="XMLID_512_">
					<path id="XMLID_513_" class="st1" d="M118,208.3c-11,0-22-0.8-32-1.9v24.4c9,4.2,20,9,32,14.3V208.3z"/>
				</g>
			</g>
		</g>
	</g>
</g>
</svg>
